<mxfile host="app.diagrams.net" modified="2020-12-30T09:41:12.176Z" agent="5.0 (Windows NT 10.0; Win64; x64) AppleWebKit/537.36 (KHTML, like Gecko) Chrome/80.0.3987.163 Safari/537.36" etag="k6DNoQB9OIOAVr8Drp9Q" version="14.1.3" type="github">
  <diagram id="OgV8At9cOp2wTqHFyp1Q" name="Page-1">
    <mxGraphModel dx="1422" dy="1931" grid="1" gridSize="10" guides="1" tooltips="1" connect="1" arrows="1" fold="1" page="1" pageScale="1" pageWidth="827" pageHeight="1169" math="0" shadow="0">
      <root>
        <mxCell id="0" />
        <mxCell id="1" parent="0" />
        <mxCell id="pLbMeJme8Y_Jl0HePabT-7" value="16类型订购" style="edgeStyle=orthogonalEdgeStyle;rounded=0;orthogonalLoop=1;jettySize=auto;html=1;" parent="1" source="pLbMeJme8Y_Jl0HePabT-2" target="pLbMeJme8Y_Jl0HePabT-6" edge="1">
          <mxGeometry relative="1" as="geometry" />
        </mxCell>
        <mxCell id="pLbMeJme8Y_Jl0HePabT-2" value="EXTB005" style="shape=mxgraph.bpmn.shape;html=1;verticalLabelPosition=bottom;verticalAlign=top;align=center;perimeter=ellipsePerimeter;outlineConnect=0;outline=standard;symbol=general;" parent="1" vertex="1">
          <mxGeometry x="20" y="-415" width="50" height="50" as="geometry" />
        </mxCell>
        <mxCell id="pLbMeJme8Y_Jl0HePabT-3" value="" style="shape=mxgraph.bpmn.shape;html=1;verticalLabelPosition=bottom;verticalAlign=top;align=center;perimeter=ellipsePerimeter;outlineConnect=0;outline=end;symbol=general;" parent="1" vertex="1">
          <mxGeometry x="860" y="2141" width="50" height="50" as="geometry" />
        </mxCell>
        <mxCell id="pLbMeJme8Y_Jl0HePabT-15" style="edgeStyle=orthogonalEdgeStyle;rounded=0;orthogonalLoop=1;jettySize=auto;html=1;" parent="1" source="pLbMeJme8Y_Jl0HePabT-6" target="pLbMeJme8Y_Jl0HePabT-12" edge="1">
          <mxGeometry relative="1" as="geometry" />
        </mxCell>
        <mxCell id="pLbMeJme8Y_Jl0HePabT-6" value="通过商品编码查询上架的产品信息" style="rounded=1;whiteSpace=wrap;html=1;" parent="1" vertex="1">
          <mxGeometry x="230" y="-420" width="120" height="60" as="geometry" />
        </mxCell>
        <mxCell id="pLbMeJme8Y_Jl0HePabT-18" value="不存在&lt;br&gt;" style="edgeStyle=orthogonalEdgeStyle;rounded=0;orthogonalLoop=1;jettySize=auto;html=1;" parent="1" source="pLbMeJme8Y_Jl0HePabT-12" target="pLbMeJme8Y_Jl0HePabT-3" edge="1">
          <mxGeometry x="-0.7124" relative="1" as="geometry">
            <mxPoint as="offset" />
          </mxGeometry>
        </mxCell>
        <mxCell id="c7PuPgjgo78gl8ul6k84-38" value="存在" style="edgeStyle=orthogonalEdgeStyle;rounded=1;sketch=0;orthogonalLoop=1;jettySize=auto;html=1;shadow=0;" edge="1" parent="1" source="pLbMeJme8Y_Jl0HePabT-12" target="c7PuPgjgo78gl8ul6k84-36">
          <mxGeometry relative="1" as="geometry" />
        </mxCell>
        <mxCell id="pLbMeJme8Y_Jl0HePabT-12" value="产品信息&lt;br&gt;是否存在" style="rhombus;whiteSpace=wrap;html=1;" parent="1" vertex="1">
          <mxGeometry x="250" y="-285" width="80" height="80" as="geometry" />
        </mxCell>
        <mxCell id="pLbMeJme8Y_Jl0HePabT-22" style="edgeStyle=orthogonalEdgeStyle;rounded=0;orthogonalLoop=1;jettySize=auto;html=1;" parent="1" source="pLbMeJme8Y_Jl0HePabT-20" target="pLbMeJme8Y_Jl0HePabT-3" edge="1">
          <mxGeometry relative="1" as="geometry" />
        </mxCell>
        <mxCell id="pLbMeJme8Y_Jl0HePabT-23" value="未上架" style="edgeLabel;html=1;align=center;verticalAlign=middle;resizable=0;points=[];" parent="pLbMeJme8Y_Jl0HePabT-22" vertex="1" connectable="0">
          <mxGeometry x="-0.4965" y="-5" relative="1" as="geometry">
            <mxPoint x="-147" y="-5" as="offset" />
          </mxGeometry>
        </mxCell>
        <mxCell id="pLbMeJme8Y_Jl0HePabT-25" value="" style="edgeStyle=orthogonalEdgeStyle;rounded=0;orthogonalLoop=1;jettySize=auto;html=1;" parent="1" source="pLbMeJme8Y_Jl0HePabT-20" target="pLbMeJme8Y_Jl0HePabT-24" edge="1">
          <mxGeometry relative="1" as="geometry" />
        </mxCell>
        <mxCell id="pLbMeJme8Y_Jl0HePabT-26" value="已上架" style="edgeLabel;html=1;align=center;verticalAlign=middle;resizable=0;points=[];" parent="pLbMeJme8Y_Jl0HePabT-25" vertex="1" connectable="0">
          <mxGeometry x="-0.25" relative="1" as="geometry">
            <mxPoint as="offset" />
          </mxGeometry>
        </mxCell>
        <mxCell id="pLbMeJme8Y_Jl0HePabT-20" value="上架渠道校验" style="rhombus;whiteSpace=wrap;html=1;" parent="1" vertex="1">
          <mxGeometry x="250" y="660" width="80" height="80" as="geometry" />
        </mxCell>
        <mxCell id="pLbMeJme8Y_Jl0HePabT-29" value="存在" style="edgeStyle=orthogonalEdgeStyle;rounded=0;orthogonalLoop=1;jettySize=auto;html=1;" parent="1" source="pLbMeJme8Y_Jl0HePabT-24" target="pLbMeJme8Y_Jl0HePabT-28" edge="1">
          <mxGeometry relative="1" as="geometry" />
        </mxCell>
        <mxCell id="Hu3Yx2KmRZgjXhI8Y2ag-7" style="edgeStyle=orthogonalEdgeStyle;curved=0;rounded=1;sketch=0;orthogonalLoop=1;jettySize=auto;html=1;" parent="1" source="pLbMeJme8Y_Jl0HePabT-24" target="Hu3Yx2KmRZgjXhI8Y2ag-6" edge="1">
          <mxGeometry relative="1" as="geometry" />
        </mxCell>
        <mxCell id="Hu3Yx2KmRZgjXhI8Y2ag-18" value="不存在" style="edgeLabel;html=1;align=center;verticalAlign=middle;resizable=0;points=[];" parent="Hu3Yx2KmRZgjXhI8Y2ag-7" vertex="1" connectable="0">
          <mxGeometry x="-0.3489" y="2" relative="1" as="geometry">
            <mxPoint as="offset" />
          </mxGeometry>
        </mxCell>
        <mxCell id="pLbMeJme8Y_Jl0HePabT-24" value="是否存在有效的订单" style="rhombus;whiteSpace=wrap;html=1;" parent="1" vertex="1">
          <mxGeometry x="250" y="820" width="80" height="80" as="geometry" />
        </mxCell>
        <mxCell id="Hu3Yx2KmRZgjXhI8Y2ag-2" value="" style="edgeStyle=orthogonalEdgeStyle;curved=0;rounded=1;sketch=0;orthogonalLoop=1;jettySize=auto;html=1;" parent="1" source="pLbMeJme8Y_Jl0HePabT-28" target="Hu3Yx2KmRZgjXhI8Y2ag-1" edge="1">
          <mxGeometry relative="1" as="geometry" />
        </mxCell>
        <mxCell id="Hu3Yx2KmRZgjXhI8Y2ag-5" value="已退订&lt;br&gt;" style="edgeLabel;html=1;align=center;verticalAlign=middle;resizable=0;points=[];" parent="Hu3Yx2KmRZgjXhI8Y2ag-2" vertex="1" connectable="0">
          <mxGeometry x="0.3692" y="2" relative="1" as="geometry">
            <mxPoint x="-74.17" y="2" as="offset" />
          </mxGeometry>
        </mxCell>
        <mxCell id="c7PuPgjgo78gl8ul6k84-27" value="" style="edgeStyle=orthogonalEdgeStyle;rounded=1;sketch=0;orthogonalLoop=1;jettySize=auto;html=1;shadow=0;" edge="1" parent="1" source="pLbMeJme8Y_Jl0HePabT-28" target="c7PuPgjgo78gl8ul6k84-26">
          <mxGeometry relative="1" as="geometry" />
        </mxCell>
        <mxCell id="c7PuPgjgo78gl8ul6k84-28" value="已订购" style="edgeLabel;html=1;align=center;verticalAlign=middle;resizable=0;points=[];" vertex="1" connectable="0" parent="c7PuPgjgo78gl8ul6k84-27">
          <mxGeometry x="-0.1311" y="1" relative="1" as="geometry">
            <mxPoint as="offset" />
          </mxGeometry>
        </mxCell>
        <mxCell id="pLbMeJme8Y_Jl0HePabT-28" value="订单状态判断" style="rhombus;whiteSpace=wrap;html=1;" parent="1" vertex="1">
          <mxGeometry x="500" y="820" width="80" height="80" as="geometry" />
        </mxCell>
        <mxCell id="Hu3Yx2KmRZgjXhI8Y2ag-13" value="不冲突" style="edgeStyle=orthogonalEdgeStyle;curved=0;rounded=1;sketch=0;orthogonalLoop=1;jettySize=auto;html=1;" parent="1" source="Hu3Yx2KmRZgjXhI8Y2ag-1" target="Hu3Yx2KmRZgjXhI8Y2ag-6" edge="1">
          <mxGeometry x="-0.5467" relative="1" as="geometry">
            <Array as="points">
              <mxPoint x="760" y="1380" />
              <mxPoint x="290" y="1380" />
            </Array>
            <mxPoint as="offset" />
          </mxGeometry>
        </mxCell>
        <mxCell id="Hu3Yx2KmRZgjXhI8Y2ag-14" style="edgeStyle=orthogonalEdgeStyle;curved=0;rounded=1;sketch=0;orthogonalLoop=1;jettySize=auto;html=1;entryX=1;entryY=0.5;entryDx=0;entryDy=0;" parent="1" source="Hu3Yx2KmRZgjXhI8Y2ag-1" target="Hu3Yx2KmRZgjXhI8Y2ag-12" edge="1">
          <mxGeometry relative="1" as="geometry" />
        </mxCell>
        <mxCell id="Hu3Yx2KmRZgjXhI8Y2ag-15" value="冲突" style="edgeLabel;html=1;align=center;verticalAlign=middle;resizable=0;points=[];" parent="Hu3Yx2KmRZgjXhI8Y2ag-14" vertex="1" connectable="0">
          <mxGeometry x="0.0836" y="-3" relative="1" as="geometry">
            <mxPoint x="35.83" y="3" as="offset" />
          </mxGeometry>
        </mxCell>
        <mxCell id="Hu3Yx2KmRZgjXhI8Y2ag-1" value="效验退订生效时间是否冲突" style="rhombus;whiteSpace=wrap;html=1;" parent="1" vertex="1">
          <mxGeometry x="710" y="930" width="80" height="80" as="geometry" />
        </mxCell>
        <mxCell id="Hu3Yx2KmRZgjXhI8Y2ag-23" value="" style="edgeStyle=orthogonalEdgeStyle;curved=0;rounded=1;sketch=0;orthogonalLoop=1;jettySize=auto;html=1;" parent="1" source="Hu3Yx2KmRZgjXhI8Y2ag-6" target="Hu3Yx2KmRZgjXhI8Y2ag-20" edge="1">
          <mxGeometry relative="1" as="geometry">
            <mxPoint x="290" y="1691" as="targetPoint" />
          </mxGeometry>
        </mxCell>
        <mxCell id="Hu3Yx2KmRZgjXhI8Y2ag-6" value="新增套餐订购关系" style="rounded=1;whiteSpace=wrap;html=1;sketch=0;" parent="1" vertex="1">
          <mxGeometry x="230" y="1551" width="120" height="60" as="geometry" />
        </mxCell>
        <mxCell id="Hu3Yx2KmRZgjXhI8Y2ag-11" value="" style="edgeStyle=orthogonalEdgeStyle;curved=0;rounded=1;sketch=0;orthogonalLoop=1;jettySize=auto;html=1;" parent="1" source="Hu3Yx2KmRZgjXhI8Y2ag-8" target="Hu3Yx2KmRZgjXhI8Y2ag-10" edge="1">
          <mxGeometry relative="1" as="geometry">
            <Array as="points">
              <mxPoint x="610" y="1320" />
              <mxPoint x="540" y="1320" />
            </Array>
          </mxGeometry>
        </mxCell>
        <mxCell id="Hu3Yx2KmRZgjXhI8Y2ag-8" value="原套餐退订处理（订单失效时间为新套餐的生效时间,即:EXTB005&lt;span&gt;参数的&lt;/span&gt;&lt;span lang=&quot;EN-US&quot; style=&quot;font-size: 11px ; font-family: &amp;#34;calibri&amp;#34; , sans-serif&quot;&gt;effectTime&lt;/span&gt;）" style="rounded=1;whiteSpace=wrap;html=1;sketch=0;align=left;" parent="1" vertex="1">
          <mxGeometry x="550" y="1150" width="120" height="60" as="geometry" />
        </mxCell>
        <mxCell id="Hu3Yx2KmRZgjXhI8Y2ag-19" style="edgeStyle=orthogonalEdgeStyle;curved=0;rounded=1;sketch=0;orthogonalLoop=1;jettySize=auto;html=1;" parent="1" source="Hu3Yx2KmRZgjXhI8Y2ag-10" target="Hu3Yx2KmRZgjXhI8Y2ag-6" edge="1">
          <mxGeometry relative="1" as="geometry">
            <Array as="points">
              <mxPoint x="540" y="1581" />
            </Array>
          </mxGeometry>
        </mxCell>
        <mxCell id="Hu3Yx2KmRZgjXhI8Y2ag-10" value="原套餐存在合约则退订合约,失效时间同上" style="rounded=1;whiteSpace=wrap;html=1;sketch=0;" parent="1" vertex="1">
          <mxGeometry x="480" y="1430" width="120" height="60" as="geometry" />
        </mxCell>
        <mxCell id="c7PuPgjgo78gl8ul6k84-21" value="" style="edgeStyle=orthogonalEdgeStyle;rounded=0;orthogonalLoop=1;jettySize=auto;html=1;" edge="1" parent="1" source="Hu3Yx2KmRZgjXhI8Y2ag-12" target="c7PuPgjgo78gl8ul6k84-20">
          <mxGeometry relative="1" as="geometry" />
        </mxCell>
        <mxCell id="Hu3Yx2KmRZgjXhI8Y2ag-12" value="将老订单的退订生效时间改为新套餐的生效时间，即:&lt;span style=&quot;text-align: left&quot;&gt;EXTB005参数的&lt;/span&gt;&lt;span lang=&quot;EN-US&quot; style=&quot;font-size: 11px ; text-align: left ; font-family: &amp;#34;calibri&amp;#34; , sans-serif&quot;&gt;effectTime&lt;/span&gt;" style="rounded=1;whiteSpace=wrap;html=1;sketch=0;" parent="1" vertex="1">
          <mxGeometry x="340" y="940" width="120" height="60" as="geometry" />
        </mxCell>
        <mxCell id="Hu3Yx2KmRZgjXhI8Y2ag-25" value="存在" style="edgeStyle=orthogonalEdgeStyle;curved=0;rounded=1;sketch=0;orthogonalLoop=1;jettySize=auto;html=1;" parent="1" source="Hu3Yx2KmRZgjXhI8Y2ag-20" target="Hu3Yx2KmRZgjXhI8Y2ag-26" edge="1">
          <mxGeometry relative="1" as="geometry">
            <mxPoint x="290" y="1921" as="targetPoint" />
          </mxGeometry>
        </mxCell>
        <mxCell id="Hu3Yx2KmRZgjXhI8Y2ag-34" value="不存在" style="edgeStyle=orthogonalEdgeStyle;curved=0;rounded=1;sketch=0;orthogonalLoop=1;jettySize=auto;html=1;" parent="1" source="Hu3Yx2KmRZgjXhI8Y2ag-20" target="Hu3Yx2KmRZgjXhI8Y2ag-28" edge="1">
          <mxGeometry x="-0.3333" relative="1" as="geometry">
            <mxPoint as="offset" />
          </mxGeometry>
        </mxCell>
        <mxCell id="Hu3Yx2KmRZgjXhI8Y2ag-20" value="新套餐是否存在合约" style="rhombus;whiteSpace=wrap;html=1;rounded=0;sketch=0;" parent="1" vertex="1">
          <mxGeometry x="250" y="1681" width="80" height="80" as="geometry" />
        </mxCell>
        <mxCell id="Hu3Yx2KmRZgjXhI8Y2ag-29" value="" style="edgeStyle=orthogonalEdgeStyle;curved=0;rounded=1;sketch=0;orthogonalLoop=1;jettySize=auto;html=1;" parent="1" source="Hu3Yx2KmRZgjXhI8Y2ag-26" target="Hu3Yx2KmRZgjXhI8Y2ag-28" edge="1">
          <mxGeometry relative="1" as="geometry" />
        </mxCell>
        <mxCell id="Hu3Yx2KmRZgjXhI8Y2ag-26" value="生成新套餐的合约订单" style="rounded=1;whiteSpace=wrap;html=1;sketch=0;" parent="1" vertex="1">
          <mxGeometry x="230" y="1831" width="120" height="60" as="geometry" />
        </mxCell>
        <mxCell id="Hu3Yx2KmRZgjXhI8Y2ag-36" value="" style="edgeStyle=orthogonalEdgeStyle;curved=0;rounded=1;sketch=0;orthogonalLoop=1;jettySize=auto;html=1;" parent="1" source="Hu3Yx2KmRZgjXhI8Y2ag-28" target="Hu3Yx2KmRZgjXhI8Y2ag-35" edge="1">
          <mxGeometry relative="1" as="geometry" />
        </mxCell>
        <mxCell id="Hu3Yx2KmRZgjXhI8Y2ag-28" value="发送套餐订购通知的MQ(EXTF005)" style="rounded=1;whiteSpace=wrap;html=1;sketch=0;" parent="1" vertex="1">
          <mxGeometry x="490" y="1831" width="120" height="60" as="geometry" />
        </mxCell>
        <mxCell id="Hu3Yx2KmRZgjXhI8Y2ag-38" value="" style="edgeStyle=orthogonalEdgeStyle;curved=0;rounded=1;sketch=0;orthogonalLoop=1;jettySize=auto;html=1;" parent="1" source="Hu3Yx2KmRZgjXhI8Y2ag-35" target="Hu3Yx2KmRZgjXhI8Y2ag-37" edge="1">
          <mxGeometry relative="1" as="geometry" />
        </mxCell>
        <mxCell id="Hu3Yx2KmRZgjXhI8Y2ag-35" value="存在原订单则发送原订单+新套餐+合约的轨迹MQ" style="rounded=1;whiteSpace=wrap;html=1;sketch=0;" parent="1" vertex="1">
          <mxGeometry x="490" y="1981" width="120" height="60" as="geometry" />
        </mxCell>
        <mxCell id="Hu3Yx2KmRZgjXhI8Y2ag-39" style="edgeStyle=orthogonalEdgeStyle;curved=0;rounded=1;sketch=0;orthogonalLoop=1;jettySize=auto;html=1;" parent="1" source="Hu3Yx2KmRZgjXhI8Y2ag-37" target="pLbMeJme8Y_Jl0HePabT-3" edge="1">
          <mxGeometry relative="1" as="geometry" />
        </mxCell>
        <mxCell id="Hu3Yx2KmRZgjXhI8Y2ag-37" value="发送订单轨迹MQ" style="rounded=1;whiteSpace=wrap;html=1;sketch=0;" parent="1" vertex="1">
          <mxGeometry x="490" y="2136" width="120" height="60" as="geometry" />
        </mxCell>
        <mxCell id="VUyrlR1kTBsmthqAl_uk-15" value="&lt;span&gt;如何才算有效的订单？&lt;/span&gt;&lt;br&gt;&lt;span&gt;1.该手机号下面有已订购的订单&lt;/span&gt;&lt;br&gt;&lt;span&gt;2.该手机号下面的已退订的订单&lt;br&gt;当前时间在失效时间范围之内&lt;br&gt;&lt;/span&gt;" style="whiteSpace=wrap;html=1;shape=mxgraph.basic.roundRectCallout;dx=30;dy=15;size=5;boundedLbl=1;labelBackgroundColor=none;align=left;" parent="1" vertex="1">
          <mxGeometry x="20" y="800" width="210" height="90" as="geometry" />
        </mxCell>
        <mxCell id="VUyrlR1kTBsmthqAl_uk-17" value="&lt;font style=&quot;font-size: 10px&quot;&gt;退订生效时间怎样才算冲突？&lt;br style=&quot;font-size: 10px&quot;&gt;EXTB005请参的&lt;span style=&quot;font-family: &amp;#34;calibri&amp;#34; , sans-serif ; font-size: 10px&quot;&gt;effectTime小于退订订单的失效时间&lt;/span&gt;&lt;/font&gt;" style="whiteSpace=wrap;html=1;shape=mxgraph.basic.roundRectCallout;dx=30;dy=15;size=5;boundedLbl=1;labelBackgroundColor=none;align=left;fontSize=8;" parent="1" vertex="1">
          <mxGeometry x="920" y="950" width="160" height="60" as="geometry" />
        </mxCell>
        <mxCell id="c7PuPgjgo78gl8ul6k84-5" value="有合约" style="edgeStyle=orthogonalEdgeStyle;rounded=0;orthogonalLoop=1;jettySize=auto;html=1;" edge="1" parent="1" source="c7PuPgjgo78gl8ul6k84-1" target="c7PuPgjgo78gl8ul6k84-4">
          <mxGeometry relative="1" as="geometry" />
        </mxCell>
        <mxCell id="c7PuPgjgo78gl8ul6k84-18" style="edgeStyle=orthogonalEdgeStyle;rounded=0;orthogonalLoop=1;jettySize=auto;html=1;entryX=0;entryY=0.5;entryDx=0;entryDy=0;" edge="1" parent="1" source="c7PuPgjgo78gl8ul6k84-1">
          <mxGeometry relative="1" as="geometry">
            <mxPoint x="250" y="80" as="sourcePoint" />
            <mxPoint x="250" y="705" as="targetPoint" />
            <Array as="points">
              <mxPoint x="120" y="80" />
              <mxPoint x="120" y="705" />
            </Array>
          </mxGeometry>
        </mxCell>
        <mxCell id="c7PuPgjgo78gl8ul6k84-19" value="无合约" style="edgeLabel;html=1;align=center;verticalAlign=middle;resizable=0;points=[];" vertex="1" connectable="0" parent="c7PuPgjgo78gl8ul6k84-18">
          <mxGeometry x="-0.5914" y="3" relative="1" as="geometry">
            <mxPoint x="2" y="14" as="offset" />
          </mxGeometry>
        </mxCell>
        <mxCell id="c7PuPgjgo78gl8ul6k84-1" value="EXTB005参数是否传递合约信息：&lt;span lang=&quot;EN-US&quot; style=&quot;font-size: 10.0pt ; font-family: &amp;#34;calibri&amp;#34; , sans-serif&quot;&gt;activityInfo&lt;/span&gt;" style="rhombus;whiteSpace=wrap;html=1;" vertex="1" parent="1">
          <mxGeometry x="250" y="40" width="80" height="80" as="geometry" />
        </mxCell>
        <mxCell id="c7PuPgjgo78gl8ul6k84-9" style="edgeStyle=orthogonalEdgeStyle;rounded=0;orthogonalLoop=1;jettySize=auto;html=1;" edge="1" parent="1" source="c7PuPgjgo78gl8ul6k84-4" target="c7PuPgjgo78gl8ul6k84-8">
          <mxGeometry relative="1" as="geometry" />
        </mxCell>
        <mxCell id="c7PuPgjgo78gl8ul6k84-4" value="通过合约编码&lt;span lang=&quot;EN-US&quot; style=&quot;font-size: 10.0pt ; font-family: &amp;#34;calibri&amp;#34; , sans-serif&quot;&gt;activityCode查询上架的合约信息&lt;/span&gt;" style="rounded=1;whiteSpace=wrap;html=1;" vertex="1" parent="1">
          <mxGeometry x="230" y="190" width="120" height="60" as="geometry" />
        </mxCell>
        <mxCell id="c7PuPgjgo78gl8ul6k84-10" style="edgeStyle=orthogonalEdgeStyle;rounded=0;orthogonalLoop=1;jettySize=auto;html=1;entryX=0.5;entryY=0;entryDx=0;entryDy=0;" edge="1" parent="1" source="c7PuPgjgo78gl8ul6k84-8" target="pLbMeJme8Y_Jl0HePabT-3">
          <mxGeometry relative="1" as="geometry" />
        </mxCell>
        <mxCell id="c7PuPgjgo78gl8ul6k84-11" value="不存在" style="edgeLabel;html=1;align=center;verticalAlign=middle;resizable=0;points=[];" vertex="1" connectable="0" parent="c7PuPgjgo78gl8ul6k84-10">
          <mxGeometry x="-0.7518" y="1" relative="1" as="geometry">
            <mxPoint x="-11.670000000000002" y="1" as="offset" />
          </mxGeometry>
        </mxCell>
        <mxCell id="c7PuPgjgo78gl8ul6k84-13" value="存在" style="edgeStyle=orthogonalEdgeStyle;rounded=0;orthogonalLoop=1;jettySize=auto;html=1;" edge="1" parent="1" source="c7PuPgjgo78gl8ul6k84-8" target="c7PuPgjgo78gl8ul6k84-12">
          <mxGeometry relative="1" as="geometry" />
        </mxCell>
        <mxCell id="c7PuPgjgo78gl8ul6k84-8" value="合约信息是否存在" style="rhombus;whiteSpace=wrap;html=1;" vertex="1" parent="1">
          <mxGeometry x="250" y="330" width="80" height="80" as="geometry" />
        </mxCell>
        <mxCell id="c7PuPgjgo78gl8ul6k84-14" style="edgeStyle=orthogonalEdgeStyle;rounded=0;orthogonalLoop=1;jettySize=auto;html=1;" edge="1" parent="1" source="c7PuPgjgo78gl8ul6k84-12" target="pLbMeJme8Y_Jl0HePabT-3">
          <mxGeometry relative="1" as="geometry" />
        </mxCell>
        <mxCell id="c7PuPgjgo78gl8ul6k84-15" value="不属于" style="edgeLabel;html=1;align=center;verticalAlign=middle;resizable=0;points=[];" vertex="1" connectable="0" parent="c7PuPgjgo78gl8ul6k84-14">
          <mxGeometry x="-0.8207" relative="1" as="geometry">
            <mxPoint x="90.83000000000001" as="offset" />
          </mxGeometry>
        </mxCell>
        <mxCell id="c7PuPgjgo78gl8ul6k84-16" style="edgeStyle=orthogonalEdgeStyle;rounded=0;orthogonalLoop=1;jettySize=auto;html=1;" edge="1" parent="1" source="c7PuPgjgo78gl8ul6k84-12" target="pLbMeJme8Y_Jl0HePabT-20">
          <mxGeometry relative="1" as="geometry">
            <mxPoint x="290" y="660" as="targetPoint" />
          </mxGeometry>
        </mxCell>
        <mxCell id="c7PuPgjgo78gl8ul6k84-17" value="属于" style="edgeLabel;html=1;align=center;verticalAlign=middle;resizable=0;points=[];" vertex="1" connectable="0" parent="c7PuPgjgo78gl8ul6k84-16">
          <mxGeometry x="-0.2085" y="-2" relative="1" as="geometry">
            <mxPoint as="offset" />
          </mxGeometry>
        </mxCell>
        <mxCell id="c7PuPgjgo78gl8ul6k84-12" value="验证订购的合约是否属于订购的套餐" style="rhombus;whiteSpace=wrap;html=1;" vertex="1" parent="1">
          <mxGeometry x="250" y="480" width="80" height="80" as="geometry" />
        </mxCell>
        <mxCell id="c7PuPgjgo78gl8ul6k84-23" style="edgeStyle=orthogonalEdgeStyle;rounded=1;sketch=0;orthogonalLoop=1;jettySize=auto;html=1;entryX=0.5;entryY=0;entryDx=0;entryDy=0;shadow=0;" edge="1" parent="1" source="c7PuPgjgo78gl8ul6k84-20" target="Hu3Yx2KmRZgjXhI8Y2ag-6">
          <mxGeometry relative="1" as="geometry">
            <Array as="points">
              <mxPoint x="400" y="1380" />
              <mxPoint x="290" y="1380" />
            </Array>
          </mxGeometry>
        </mxCell>
        <mxCell id="c7PuPgjgo78gl8ul6k84-20" value="老订单存在合约则退订合约,失效时间同上" style="rounded=1;whiteSpace=wrap;html=1;sketch=0;" vertex="1" parent="1">
          <mxGeometry x="340" y="1240" width="120" height="60" as="geometry" />
        </mxCell>
        <mxCell id="c7PuPgjgo78gl8ul6k84-30" value="小于" style="edgeStyle=orthogonalEdgeStyle;rounded=1;sketch=0;orthogonalLoop=1;jettySize=auto;html=1;shadow=0;" edge="1" parent="1" source="c7PuPgjgo78gl8ul6k84-26" target="c7PuPgjgo78gl8ul6k84-29">
          <mxGeometry relative="1" as="geometry" />
        </mxCell>
        <mxCell id="c7PuPgjgo78gl8ul6k84-31" style="edgeStyle=orthogonalEdgeStyle;rounded=1;sketch=0;orthogonalLoop=1;jettySize=auto;html=1;entryX=0.5;entryY=0;entryDx=0;entryDy=0;shadow=0;" edge="1" parent="1" source="c7PuPgjgo78gl8ul6k84-26" target="Hu3Yx2KmRZgjXhI8Y2ag-8">
          <mxGeometry relative="1" as="geometry" />
        </mxCell>
        <mxCell id="c7PuPgjgo78gl8ul6k84-32" value="大于" style="edgeLabel;html=1;align=center;verticalAlign=middle;resizable=0;points=[];" vertex="1" connectable="0" parent="c7PuPgjgo78gl8ul6k84-31">
          <mxGeometry x="0.1905" y="3" relative="1" as="geometry">
            <mxPoint x="-8.33" as="offset" />
          </mxGeometry>
        </mxCell>
        <mxCell id="c7PuPgjgo78gl8ul6k84-26" value="判断已订购订单的失效时间是否小于新套餐的订购时间" style="rhombus;whiteSpace=wrap;html=1;" vertex="1" parent="1">
          <mxGeometry x="500" y="1000" width="80" height="80" as="geometry" />
        </mxCell>
        <mxCell id="c7PuPgjgo78gl8ul6k84-33" style="edgeStyle=orthogonalEdgeStyle;rounded=1;sketch=0;orthogonalLoop=1;jettySize=auto;html=1;shadow=0;" edge="1" parent="1" source="c7PuPgjgo78gl8ul6k84-29" target="Hu3Yx2KmRZgjXhI8Y2ag-10">
          <mxGeometry relative="1" as="geometry">
            <Array as="points">
              <mxPoint x="474" y="1320" />
              <mxPoint x="540" y="1320" />
            </Array>
          </mxGeometry>
        </mxCell>
        <mxCell id="c7PuPgjgo78gl8ul6k84-29" value="&lt;span style=&quot;text-align: left&quot;&gt;原套餐退订处理（订单失效时间不变&lt;/span&gt;&lt;span style=&quot;text-align: left&quot;&gt;）&lt;/span&gt;" style="rounded=1;whiteSpace=wrap;html=1;" vertex="1" parent="1">
          <mxGeometry x="414" y="1150" width="120" height="60" as="geometry" />
        </mxCell>
        <mxCell id="c7PuPgjgo78gl8ul6k84-34" value="新增订单轨迹表t_package_contract_log,结构类似与t_changeorder_log，列order_type的值为:0套餐，1合约" style="whiteSpace=wrap;html=1;shape=mxgraph.basic.roundRectCallout;dx=30;dy=15;size=5;boundedLbl=1;align=left;" vertex="1" parent="1">
          <mxGeometry x="600" y="1921" width="220" height="60" as="geometry" />
        </mxCell>
        <mxCell id="c7PuPgjgo78gl8ul6k84-39" value="成功" style="edgeStyle=orthogonalEdgeStyle;rounded=1;sketch=0;orthogonalLoop=1;jettySize=auto;html=1;shadow=0;" edge="1" parent="1" source="c7PuPgjgo78gl8ul6k84-36" target="c7PuPgjgo78gl8ul6k84-1">
          <mxGeometry relative="1" as="geometry" />
        </mxCell>
        <mxCell id="c7PuPgjgo78gl8ul6k84-41" value="失败" style="edgeStyle=orthogonalEdgeStyle;rounded=0;sketch=0;orthogonalLoop=1;jettySize=auto;html=1;shadow=0;" edge="1" parent="1" source="c7PuPgjgo78gl8ul6k84-36" target="pLbMeJme8Y_Jl0HePabT-3">
          <mxGeometry x="-0.7118" relative="1" as="geometry">
            <mxPoint as="offset" />
          </mxGeometry>
        </mxCell>
        <mxCell id="c7PuPgjgo78gl8ul6k84-36" value="&lt;span style=&quot;font-size: 11px;&quot;&gt;redis通过手机号+能开商品编码加锁&lt;/span&gt;" style="rhombus;whiteSpace=wrap;html=1;labelBackgroundColor=none;" vertex="1" parent="1">
          <mxGeometry x="250" y="-120" width="80" height="80" as="geometry" />
        </mxCell>
      </root>
    </mxGraphModel>
  </diagram>
</mxfile>
